<svg class="chocolate-logo" version="1.1" id="Layer_1" xmlns="http://www.w3.org/2000/svg" xmlns:xlink="http://www.w3.org/1999/xlink" x="0px" y="0px" viewBox="0 0 200 200" style="enable-background:new 0 0 200 200;" xml:space="preserve">
<path d="M171,91.5c-1.8,0-3.9,0.1-5.6-0.4c-2.3,2.4-3.9,5-5.7,7.6c-0.6,1.8-0.7,3.9-0.6,5.9c-1.5,0.2-3-0.1-4.5-0.2
	c-0.5-0.9-0.7-1.9-1-2.9c-0.3-3.4-0.4-6.9-0.3-10.5c2.1,0,4.2,0.1,6.3,0.2l0.3-3.6c-2.3-0.5-4.8-0.5-7.2-0.9l-0.5-3.7h-3.9l-0.7,3.6
	l-6.1-0.2c0.1,1.3,0.4,2.5,0.7,3.7l4.8,0.6c-0.5,3.6-0.7,7.4-0.4,11.1c-0.3,1.8-1,3.3-1.9,4.8l-0.3,0.1c-1.8-2.7-2.4-5.9-3.7-8.8
	c-1.3,0.1-2.6,0.3-3.9,0.2c-0.3-1.3,0.1-2.6,0.1-3.8l-1.6,0.1l-5.1,2.7l-7.9,5.4c-0.2,0-0.5,0.2-0.7,0c0-0.9-0.3-1.8-0.2-2.7l6-6.7
	l0.8-3.4c0.4-3.8,0.1-8-0.2-11.8c-3.2-0.8-6.5-1.3-9.9-1.5c-0.4,3.8-0.9,7.5-1.2,11.3c-0.2,4.2-0.3,8.6-0.4,12.6l-0.1,0.3
	c-1.7,0.6-3.5,1-5.3,1.3c-0.9,0.5-0.6-0.7-0.8-1.1c-1-2.6-3-4.8-5.3-6.7c-2.5,0.3-4.7,1.4-7,2.2c-1.3,2.2-1.8,4.7-2,7.4l-0.2,0.2
	c-2.4,1-5,1.5-7.5,2c-1.2-1.3-2.3-2.8-3.3-4.4c0.5-0.8,1.1-1.6,1.6-2.4l2.2-1.9l0.3-0.1l3.9,1.2l1.6-3.8L89.9,93
	c-1.4,0.5-2.7,1-4,1.8c-0.6,0.3-1.1,1-1.8,1.2c-3,0.6-6.1,1.2-9.1,1.7c-1.5-0.9-3.4-1-5.2-1.2c-1.8-0.4-3.5,0.2-5.2,0.4l-4.1,4.7
	c-0.2-0.1-0.5,0-0.7-0.1c-0.1-2.1-0.3-4.2-0.7-6.3c-1.8-0.9-3.5-1.8-5.4-2.5c-1.9,0.6-3.9,1.1-5.6,2.5c-0.3,0.1-0.6,0.6-1,0.5
	L47.2,87l0.4-10.5c-1.6,0-3.1,0.1-4.6,0c-0.1,2.9,0.3,5.6,0.5,8.5l1.3,13.6c-0.4,1.8-1.6,3.3-2.4,5c0,0.2-0.3,0.3-0.5,0.3
	c-3.6-0.7-7-1.6-10.1-3.4c-0.5-0.5-1.3-0.9-1.2-1.7c-0.1-0.3,0.2-0.6,0.4-0.9c2.6,0.1,5.3,0,7.7,0.5l0-3.9c-3.2-0.4-6.4-1.3-9.7-1.3
	c-1.4,2.7-2.5,5.6-3.5,8.4c1,2.4,2.8,4.3,4.6,6.3c3.1,1.1,6.8,0.9,10.3,1.2c1.7-1.6,3-3.8,4.9-5.1c0.3-0.1,0.5,0.2,0.7,0.4
	c0.5,1.5,0.8,3.2,1.5,4.6l3.1-0.5l0.4-7.1l0.3-1.7c0.3-1,1.3-1.8,2.3-2c0.3,0,0.7,0,0.8,0.3l0.5,4.7c1.4,0.9,2.8,1.6,4.2,2.4
	c1.1-0.7,2-1.7,3.3-1.9l0.7,4.3c1.2,1.6,2.9,2.7,4.4,4.1l5.3,0.3c2.1-1.6,4.2-3.4,5.9-5.4c-0.6-2-1.2-4.1-2-6l0.2-0.2l4.4-1
	c0.4-0.1,1-0.3,1.4,0.1l-0.7,2.9c1.7,1.9,3.4,3.9,5.4,5.5c3.4-0.5,6.7-1.2,10-2.1l2.2,1.9c2.3,0.6,4.8,0.8,7.2,0.6
	c1.3-1.2,2.4-2.5,3.1-4c2.2-0.3,4.3-0.9,6.1-1.9c0.1,0.9,0,2,0.1,2.9l3.9,3.3c3.1-2.2,6-4.9,9.4-6.7l0.1,0.1
	c-0.8,1.8-1.6,3.7-2.3,5.6l0.3,0.9c0.8,1.3,1.5,2.7,2.6,3.9l2.7,0.3c1.6-0.1,3.6,0.6,4.9-0.6c0.7-0.8,1.5-1.6,2-2.5l1.9,1.8
	c1.2,1.2,2.9,0.1,4.4,0.1c0.6-2,1.1-3.9,1.8-5.8c1.6,0.9,3.1,2,4.9,2.3c2.8,0.8,6,0.3,8.7-0.5c2.4,1.8,5,3.3,7.8,3.9l0.2-0.6
	c-2.2-1.2-4.2-2.7-5.9-4.6l0-0.3c2.8-2.1,5.9-3.6,8.5-6.3v-0.7C172.5,96,171.7,93.8,171,91.5 M75.3,106.5c-2.6,0.1-5.3,0.6-7.9,0.2
	c-0.7-0.2-0.2-1.2-0.4-1.7c-0.1-0.5,0.1-1-0.1-1.4l0.1-0.1c0-1.8,0.1-3.7,0.1-5.4c1-0.5,2.3-0.7,3.7-0.5l0.2,0.2
	c-0.2,1.2-0.3,2.3-0.2,3.5c1.2,0.5,2.3,0.9,3.6,1.2C74.8,103.7,75.5,105,75.3,106.5 M105.7,106.2c-1.6,0.7-3.4,0.1-4.5-0.8
	c-0.5-1.2-0.3-2.7-0.1-4c1.4,1.8,3.7,2.7,6,2.8C106.9,104.9,106.4,105.8,105.7,106.2 M107.7,102.3c-0.4,0.2-0.8,0-1.2-0.1
	c-1.5-0.7-3.1-1.7-4-3.2c-0.1-0.2-0.2-0.4-0.1-0.6c1.6-0.3,3.5-0.5,4.9,0.5C107.7,99.9,107.8,101.2,107.7,102.3 M120.2,95.9
	c-0.5,0.4-1,1.1-1.6,1.2l-0.5-7.9c0.2-3.3,0.4-6.7,1.2-9.7l0.3-0.6l2-0.1l2,0.5c-0.3,4.8-0.8,9.4-2.2,13.8L120.2,95.9z M134.9,108.8
	c-0.7,0.3-1.2-0.2-1.8-0.4c-1.3-0.8-2.6-1.5-3.9-2.4l0.1-0.4c1.5-1.5,3.1-2.8,4.8-4c0.5-0.4,1.2-0.4,1.9-0.4
	C136,103.8,136,106.6,134.9,108.8 M170.6,99.1c-1.6,1.3-3.4,2.9-5.2,4c-0.3,0.1-0.6,0.2-0.7-0.2c1.1-2.7,1.4-5.8,3.3-8.1l2.4,0.4
	C170.6,96.5,170.6,97.8,170.6,99.1"></path>
</svg>